<?xml version="1.0" standalone="no"?>
<!DOCTYPE svg PUBLIC "-//W3C//DTD SVG 20010904//EN"
 "http://www.w3.org/TR/2001/REC-SVG-20010904/DTD/svg10.dtd">
<svg version="1.0" xmlns="http://www.w3.org/2000/svg"
 width="1024.000000pt" height="1024.000000pt" viewBox="0 0 1024.000000 1024.000000"
 preserveAspectRatio="xMidYMid meet">
<metadata>
Created by potrace 1.11, written by Peter Selinger 2001-2013
</metadata>
<g transform="translate(0.000000,1024.000000) scale(0.100000,-0.100000)"
fill="#000000" stroke="none">
<path d="M8234 8571 c-94 -32 -165 -96 -212 -191 -24 -48 -27 -67 -27 -150 0
-82 4 -103 27 -152 34 -73 103 -142 176 -176 49 -23 70 -27 153 -27 90 0 100
2 165 35 244 125 263 472 33 620 -94 61 -212 76 -315 41z"/>
<path d="M5670 8096 c-76 -16 -162 -53 -222 -94 -42 -29 -320 -301 -443 -433
-164 -177 -205 -433 -104 -658 16 -35 28 -65 27 -67 -2 -1 -230 -93 -508 -204
-278 -111 -518 -208 -535 -215 -16 -7 -57 -23 -90 -35 -33 -13 -73 -29 -90
-36 -16 -7 -223 -90 -460 -185 -236 -94 -443 -177 -460 -184 -16 -8 -279 -113
-583 -235 -305 -121 -575 -231 -601 -245 -118 -60 -236 -181 -301 -310 -60
-118 -81 -213 -76 -343 5 -135 9 -156 46 -248 54 -135 87 -175 423 -507 177
-176 614 -608 971 -960 357 -353 854 -845 1105 -1093 735 -728 783 -774 841
-814 72 -48 102 -64 180 -90 85 -29 135 -35 255 -34 249 4 469 134 602 356 17
29 100 224 183 433 83 209 155 389 160 400 5 11 66 164 136 340 69 176 132
334 139 350 8 17 62 152 120 300 59 149 113 284 120 300 7 17 18 44 23 60 6
17 111 280 234 586 l223 556 71 -34 c173 -82 355 -81 534 5 68 33 97 58 321
282 237 235 248 248 287 330 47 99 65 177 63 274 -3 131 -43 252 -119 356 -15
19 -465 474 -1002 1010 -1044 1044 -1024 1025 -1170 1071 -83 26 -215 33 -300
15z m155 -475 c24 -1 1929 -1903 1946 -1943 26 -64 11 -88 -190 -289 -187
-188 -230 -221 -281 -213 -37 7 -53 20 -220 186 -172 171 -202 190 -271 169
-44 -13 -68 -43 -97 -123 -47 -128 -215 -544 -223 -552 -5 -6 -25 8 -49 32
-207 211 -597 473 -850 572 -30 12 -68 28 -85 35 -44 21 -230 81 -337 109
-156 41 -390 85 -598 111 -30 4 -62 9 -70 10 -8 2 -42 6 -75 10 -33 3 -75 8
-92 11 -18 2 -50 6 -70 9 -87 11 -199 26 -218 29 -11 2 -40 7 -65 10 -47 8
-188 33 -229 42 -17 4 78 46 350 155 206 82 383 154 394 159 11 5 52 21 90 35
39 15 79 31 90 36 11 5 106 43 210 84 105 42 199 80 210 85 11 5 79 32 150 60
72 28 139 55 150 59 11 5 66 28 123 51 119 49 152 81 152 146 0 56 -24 88
-185 250 -80 80 -148 157 -151 170 -4 14 -4 42 -1 62 6 31 35 65 194 225 177
177 227 218 263 211 8 -1 24 -3 35 -3z m-2438 -1942 c88 -33 401 -104 553
-124 19 -3 46 -7 60 -10 14 -3 63 -10 110 -15 112 -14 135 -17 195 -26 28 -3
68 -8 90 -10 22 -2 54 -6 70 -8 17 -3 53 -8 80 -11 64 -8 325 -51 390 -65 28
-6 61 -13 75 -16 14 -2 68 -16 120 -30 459 -124 827 -337 1177 -683 l83 -82
-65 -162 c-36 -89 -69 -171 -74 -182 -5 -11 -186 -463 -402 -1005 -624 -1566
-613 -1541 -647 -1581 -68 -80 -192 -106 -285 -58 -33 17 -211 186 -608 579
-309 305 -659 652 -779 770 -292 288 -1535 1517 -1672 1653 -59 60 -118 127
-130 150 -44 87 -25 200 46 272 32 32 71 52 181 97 427 172 1391 557 1397 558
4 0 19 -5 35 -11z"/>
<path d="M8123 7115 c-86 -43 -136 -127 -132 -224 4 -93 51 -166 135 -207 47
-23 63 -26 119 -22 146 12 244 136 221 280 -25 157 -199 245 -343 173z"/>
</g>
</svg>
